Coordinates
version=1
nRows=24
nColumns=38
inDegrees=no

Units are S.I. units (second, meters, Newtons, ...)
If the header above contains a line with 'inDegrees', this indicates whether rotational values are in degrees (yes) or radians (no).

endheader
time	pelvis_tilt	pelvis_list	pelvis_rotation	pelvis_tx	pelvis_ty	pelvis_tz	hip_flexion_r	hip_adduction_r	hip_rotation_r	knee_angle_r	ankle_angle_r	subtalar_angle_r	mtp_angle_r	hip_flexion_l	hip_adduction_l	hip_rotation_l	knee_angle_l	ankle_angle_l	subtalar_angle_l	mtp_angle_l	lumbar_extension	lumbar_bending	lumbar_rotation	arm_flex_r	arm_add_r	arm_rot_r	elbow_flex_r	pro_sup_r	wrist_flex_r	wrist_dev_r	arm_flex_l	arm_add_l	arm_rot_l	elbow_flex_l	pro_sup_l	wrist_flex_l	wrist_dev_l
0.82	0.223149	1.49473	-1.87657	0.749467	1.24881	0.91132	-0.334397	-0.00547985	-0.197387	0.191818	0.289597	0	0	0.296815	0.0739321	-0.230506	0.11471	0.0896575	0	0	-0.227571	-0.0600606	-0.0419944	-0.0641208	-0.27296	0.247815	0.467673	0.918352	0	0	-0.04807	-0.304954	0.43856	0.66527	1.34458	0	0
0.83	0.255683	1.49542	-1.9122	0.749712	1.23715	0.910121	-0.33136	-0.0142762	-0.201027	0.221159	0.293234	0	0	0.299823	0.076966	-0.234131	0.138214	0.0941655	0	0	-0.221895	-0.06509	-0.0370968	-0.0675146	-0.272954	0.243482	0.464	0.916849	0	0	-0.0519166	-0.30314	0.436879	0.664852	1.35303	0	0
0.84	0.28828	1.49631	-1.94808	0.750081	1.22532	0.909027	-0.326186	-0.0234727	-0.202076	0.253697	0.293879	0	0	0.298577	0.0801922	-0.240015	0.149143	0.0761276	0	0	-0.215632	-0.0697967	-0.0325031	-0.0714299	-0.273221	0.240482	0.461347	0.916937	0	0	-0.0570419	-0.301216	0.43297	0.66578	1.36083	0	0
0.85	0.323765	1.49659	-1.98632	0.750579	1.21329	0.908152	-0.319011	-0.0336576	-0.202122	0.290795	0.291551	0	0	0.293778	0.0834647	-0.249425	0.153645	0.0453556	0	0	-0.209616	-0.0747325	-0.0292272	-0.0749714	-0.273193	0.237148	0.458671	0.916941	0	0	-0.0634829	-0.299778	0.427851	0.66786	1.36768	0	0
0.86	0.395275	1.49613	-2.05906	0.751451	1.20115	0.907437	-0.311827	-0.0493947	-0.184376	0.329733	0.288517	0	0	0.28956	0.0896128	-0.259161	0.160778	0.0212647	0	0	-0.202906	-0.082039	-0.0284904	-0.0781703	-0.272629	0.232865	0.455938	0.916534	0	0	-0.0703615	-0.298898	0.424964	0.668292	1.37626	0	0
0.87	0.462105	1.49256	-2.12581	0.752446	1.18901	0.907382	-0.301855	-0.0653817	-0.178019	0.374451	0.277464	0	0	0.28529	0.0966599	-0.266521	0.17765	0.0178233	0	0	-0.199362	-0.0905851	-0.0296639	-0.081001	-0.271377	0.229627	0.454181	0.917496	0	0	-0.0765803	-0.29898	0.425079	0.666243	1.38918	0	0
0.88	0.507295	1.48625	-2.16787	0.753449	1.17698	0.908012	-0.284407	-0.0795866	-0.207087	0.437302	0.258931	0	0	0.282164	0.103005	-0.272672	0.206931	0.0316606	0	0	-0.19985	-0.0996635	-0.0342841	-0.082638	-0.268536	0.226573	0.452559	0.918339	0	0	-0.0821924	-0.300681	0.422415	0.66738	1.39973	0	0
0.89	0.569074	1.48032	-2.22382	0.754801	1.16503	0.908838	-0.26776	-0.0978377	-0.21092	0.496127	0.232655	0	0	0.281859	0.110521	-0.278444	0.239716	0.0493943	0	0	-0.199215	-0.109664	-0.041797	-0.0840721	-0.264992	0.224319	0.451161	0.919405	0	0	-0.0876723	-0.302585	0.416316	0.671223	1.40268	0	0
0.9	0.631191	1.47703	-2.2788	0.756111	1.15315	0.909625	-0.243679	-0.114994	-0.21186	0.560051	0.192706	0	0	0.285072	0.11459	-0.290458	0.274914	0.0688882	0	0	-0.195865	-0.118313	-0.0496204	-0.0859083	-0.260357	0.218299	0.449366	0.923548	0	0	-0.0923893	-0.307314	0.419873	0.678537	1.36833	0	0
0.91	0.69946	1.47309	-2.33829	0.757766	1.14139	0.910559	-0.21526	-0.133827	-0.21117	0.627265	0.140059	0	0	0.280097	0.124115	-0.288322	0.289681	0.0770404	0	0	-0.192603	-0.127093	-0.0590212	-0.0877992	-0.257106	0.219171	0.448679	0.922193	0	0	-0.0957992	-0.31167	0.424568	0.679504	1.37139	0	0
0.92	0.777991	1.47163	-2.40686	0.759632	1.12971	0.911154	-0.180529	-0.151853	-0.208663	0.696131	0.0742692	0	0	0.276239	0.133675	-0.28494	0.300202	0.0857347	0	0	-0.185939	-0.134015	-0.0690001	-0.0902565	-0.254832	0.224317	0.44798	0.918222	0	0	-0.0992801	-0.317368	0.432387	0.684514	1.36312	0	0
0.93	0.859815	1.47134	-2.47811	0.761657	1.11819	0.911469	-0.14193	-0.168834	-0.203887	0.764205	-0.000205324	0	0	0.271804	0.143715	-0.278683	0.306151	0.0950749	0	0	-0.17719	-0.1394	-0.0789086	-0.0946537	-0.259188	0.263142	0.455203	0.857697	0	0	-0.101136	-0.331022	0.471004	0.701559	1.26131	0	0
0.94	0.937845	1.4716	-2.5453	0.763738	1.10688	0.911657	-0.101346	-0.183709	-0.195945	0.82988	-0.0728706	0	0	0.26604	0.153718	-0.269197	0.308117	0.103194	0	0	-0.168546	-0.143127	-0.0888116	-0.0978814	-0.257932	0.269057	0.455172	0.853359	0	0	-0.103197	-0.339009	0.486744	0.709092	1.25282	0	0
0.95	0.998531	1.47096	-2.59675	0.765665	1.09559	0.911965	-0.0610864	-0.198114	-0.190133	0.890538	-0.151678	0	0	0.25621	0.163424	-0.259235	0.305569	0.10933	0	0	-0.161165	-0.146178	-0.0970792	-0.101407	-0.256433	0.272016	0.454859	0.852346	0	0	-0.104774	-0.346758	0.500744	0.717406	1.24672	0	0
0.96	1.03026	1.46953	-2.62071	0.767298	1.08447	0.912543	-0.0307963	-0.20763	-0.176244	0.942905	-0.210015	0	0	0.242649	0.171568	-0.24952	0.301387	0.113853	0	0	-0.156812	-0.148425	-0.104077	-0.105245	-0.254468	0.27123	0.455634	0.853616	0	0	-0.10569	-0.354214	0.510584	0.727006	1.24196	0	0
0.97	0.990054	1.46632	-2.57273	0.768893	1.07337	0.91408	-0.014353	-0.215256	-0.173134	0.982412	-0.265009	0	0	0.219869	0.177418	-0.237565	0.294746	0.116539	0	0	-0.160808	-0.14803	-0.111166	-0.109247	-0.252541	0.263621	0.459128	0.855825	0	0	-0.104696	-0.361111	0.519682	0.736262	1.23805	0	0
0.98	0.934366	1.46182	-2.51182	0.770345	1.06274	0.915967	0.0106825	-0.227981	-0.16788	1.03205	-0.312251	0	0	0.193997	0.182624	-0.224653	0.285206	0.116452	0	0	-0.16812	-0.147412	-0.115781	-0.112965	-0.251422	0.254155	0.465074	0.858821	0	0	-0.10119	-0.366529	0.527071	0.743034	1.23652	0	0
0.99	0.897676	1.45764	-2.4715	0.771294	1.05244	0.917559	0.0362451	-0.233121	-0.153075	1.07303	-0.331211	0	0	0.171116	0.186516	-0.215634	0.277515	0.11655	0	0	-0.173981	-0.148324	-0.119539	-0.116301	-0.250257	0.246809	0.471788	0.862019	0	0	-0.0982612	-0.372934	0.532324	0.750675	1.23525	0	0
1	0.856361	1.45239	-2.42783	0.772122	1.04241	0.91936	0.0605234	-0.236837	-0.136485	1.11095	-0.315772	0	0	0.143666	0.191216	-0.203538	0.261855	0.111546	0	0	-0.182063	-0.149433	-0.122716	-0.119074	-0.247948	0.227542	0.47896	0.885152	0	0	-0.0961663	-0.374169	0.516868	0.751765	1.30776	0	0
1.01	0.816251	1.44898	-2.38534	0.772901	1.03275	0.92111	0.0860259	-0.237742	-0.120343	1.14707	-0.276318	0	0	0.119036	0.193006	-0.195619	0.2491	0.108137	0	0	-0.189075	-0.14894	-0.125884	-0.120259	-0.248291	0.222345	0.485871	0.888384	0	0	-0.0920514	-0.377623	0.514479	0.754769	1.31916	0	0
1.02	0.773207	1.44607	-2.33975	0.773715	1.02331	0.922934	0.111613	-0.237243	-0.105034	1.18002	-0.231155	0	0	0.0937888	0.19387	-0.187252	0.234554	0.103866	0	0	-0.196295	-0.147305	-0.129374	-0.120033	-0.249577	0.220034	0.49095	0.891149	0	0	-0.0874177	-0.379853	0.510321	0.756009	1.32833	0	0
1.03	0.734112	1.44547	-2.2981	0.77453	1.01427	0.924644	0.134655	-0.230604	-0.0647781	1.19896	-0.181682	0	0	0.0714105	0.193022	-0.177945	0.220177	0.0995531	0	0	-0.201893	-0.143886	-0.133117	-0.117533	-0.251481	0.22103	0.492989	0.893522	0	0	-0.0820406	-0.381081	0.505109	0.755863	1.33463	0	0
1.04	0.689764	1.4429	-2.24819	0.775645	1.00481	0.926458	0.157659	-0.23184	-0.0827111	1.2209	-0.157563	0	0	0.0451672	0.193218	-0.166231	0.203546	0.0954591	0	0	-0.208531	-0.140552	-0.139677	-0.115034	-0.253457	0.223658	0.492553	0.89501	0	0	-0.0777334	-0.382366	0.499664	0.756432	1.3389	0	0
1.05	0.652575	1.44358	-2.20665	0.776577	0.995887	0.928019	0.181303	-0.226678	-0.0667868	1.22148	-0.142172	0	0	0.0240645	0.191162	-0.155516	0.188825	0.0927176	0	0	-0.212335	-0.135719	-0.144742	-0.11019	-0.255024	0.226442	0.48882	0.894915	0	0	-0.0724557	-0.383391	0.496883	0.754791	1.34264	0	0
